<?xml version="1.0" encoding="iso-8859-1"?>
<!-- Uploaded to: SVG Repo, www.svgrepo.com, Generator: SVG Repo Mixer Tools -->
<svg fill="white" height="40px" width="40px" version="1.1" id="Layer_1" xmlns="http://www.w3.org/2000/svg" xmlns:xlink="http://www.w3.org/1999/xlink" 
	 viewBox="0 0 512 512" xml:space="preserve">
<g>
	<g>
		<path d="M256,0C114.844,0,0,114.839,0,256s114.844,256,256,256s256-114.839,256-256S397.156,0,256,0z M321.873,388.312
			c-3.219,4.848-8.523,7.469-13.927,7.469c-3.175,0-6.381-0.897-9.219-2.783L113.175,269.916c-4.664-3.093-7.469-8.317-7.469-13.916
			c0-5.599,2.805-10.823,7.469-13.916l185.551-123.081c7.665-5.082,18.036-3.017,23.146,4.686c5.099,7.686,3,18.047-4.686,23.146
			L152.619,256l164.568,109.165C324.873,370.264,326.972,380.626,321.873,388.312z"/>
	</g>
</g>
</svg>