<?xml version="1.0" encoding="iso-8859-1"?>
<!-- Uploaded to: SVG Repo, www.svgrepo.com, Generator: SVG Repo Mixer Tools -->
<svg version="1.1" width=200px height=200px id="Layer_1" xmlns="http://www.w3.org/2000/svg" xmlns:xlink="http://www.w3.org/1999/xlink" 
	 viewBox="0 0 511.993 511.993" xml:space="preserve">
<path style="fill:#EC5564;" d="M490.632,388.477L479.991,26.362c-0.172-5.766-4.906-10.359-10.672-10.359H42.673
	c-5.781,0-10.5,4.594-10.672,10.359L21.33,389.024c-0.078,2.875,1.016,5.672,3.016,7.734c2.016,2.078,4.766,3.234,7.656,3.234
	h447.99c0,0,0,0,0.016,0c5.891,0,10.656-4.766,10.656-10.656C490.663,389.04,490.663,388.759,490.632,388.477z"/>
<path style="fill:#FFCE54;" d="M479.991,48.002H32.001c-2.828,0-5.546,1.125-7.546,3.125s-3.125,4.719-3.125,7.547v362.663
	c0,5.891,4.781,10.656,10.671,10.656h447.99c5.891,0,10.672-4.766,10.672-10.656V58.674
	C490.663,52.783,485.882,48.002,479.991,48.002z"/>
<path style="fill:#48CFAD;" d="M498.304,83.251c-2-2.078-4.766-3.25-7.641-3.25H21.33c-2.875,0-5.641,1.172-7.656,3.25
	c-2,2.062-3.094,4.859-3,7.734L21.33,453.648c0.172,5.766,4.906,10.343,10.671,10.343h447.99c5.766,0,10.484-4.577,10.656-10.343
	l10.672-362.663C501.397,88.11,500.319,85.313,498.304,83.251z"/>
<path style="fill:#AC92EB;" d="M509.084,115.36c-2.016-2.141-4.828-3.359-7.765-3.359H10.674c-2.937,0-5.75,1.219-7.765,3.359
	s-3.062,5.016-2.891,7.937L21.346,485.96c0.344,5.641,5,10.031,10.656,10.031h447.99c5.641,0,10.312-4.391,10.641-10.031
	l21.342-362.663C512.146,120.375,511.1,117.5,509.084,115.36z"/>
<path style="fill:#967ADC;" d="M2.909,115.36c-2.016,2.141-3.062,5.016-2.891,7.937L21.346,485.96
	c0.344,5.641,5,10.031,10.656,10.031h63.983l0.609-0.625L74.079,112.641L73.595,112h-62.92C7.737,112,4.924,113.219,2.909,115.36z"
	/>
<rect x="255.996" y="234.917" style="fill:#CCD1D9;" width="21.328" height="154.42"/>
<g>
	<path style="fill:#E6E9ED;" d="M356.76,241.138l-85.326-42.67c-3.312-1.656-7.233-1.469-10.374,0.469
		c-3.156,1.937-5.063,5.375-5.063,9.062v85.342c0,3.688,1.907,7.125,5.063,9.078c1.703,1.047,3.656,1.578,5.608,1.578
		c1.625,0,3.25-0.359,4.766-1.125l85.326-42.655c3.609-1.812,5.906-5.5,5.906-9.547C362.666,246.638,360.369,242.935,356.76,241.138
		z"/>
	<path style="fill:#E6E9ED;" d="M234.668,346.667c-23.531,0-42.671,19.14-42.671,42.67c0,23.531,19.14,42.656,42.671,42.656
		c23.516,0,42.656-19.125,42.656-42.656C277.324,365.807,258.184,346.667,234.668,346.667z"/>
</g>
</svg>